<?xml version="1.0" encoding="utf-8"?>
<?xml-stylesheet type="text/xsl" href="rss1.xsl"?>
<rss version="2.0" xmlns:atom="http://www.w3.org/2005/Atom" xmlns:content="http://purl.org/rss/1.0/modules/content/" xmlns:dc="http://purl.org/dc/elements/1.1/" xmlns:media="http://search.yahoo.com/mrss/">
<channel>
 <title>Getty</title>
 <link>http://www.gettyimg.com/</link>
 <atom:link href="http://www.gettyimg.com/" rel="self" type="application/rss+xml" />

 
                <item>
                <title><![CDATA[【HD Live Performances】FEED - Green Day - Live @ Isle Of Wight 2024 FEED HDTV H264 1080i MP2&amp;Dolby E-J Silver]]></title>
                <link><![CDATA[https://sharemania.us/threads/green-day-live-isle-of-wight-2024-feed-hdtv-h264-1080i-mp2-dolby-e-j-silver.247916/]]></link>
                <description><![CDATA[<article>
<blockquote class="messageText SelectQuoteContainer ugc baseHtml">
<div style="text-align: center"><img src="https://i123.fastpic.org/big/2024/0622/e0/bad436517f8c24d4734ef8f62ee125e0.png?r=1" class="bbCodeImage LbImage" alt="[​IMG]" data-url="https://i123.fastpic.org/big/2024/0622/e0/bad436517f8c24d4734ef8f62ee125e0.png?r=1" style=""><br>
<br>
<a href="https://fastpic.org/view/123/2024/0625/_bdfb2007e746fe7dc6d9a7059798e50c.png.html" target="_blank" class="externalLink" rel="nofollow"><img src="https://i123.fastpic.org/thumb/2024/0625/0c/_bdfb2007e746fe7dc6d9a7059798e50c.jpeg" class="bbCodeImage LbImage" alt="[​IMG]" data-url="https://i123.fastpic.org/thumb/2024/0625/0c/_bdfb2007e746fe7dc6d9a7059798e50c.jpeg"></a> <a href="https://fastpic.org/view/123/2024/0625/_233aa53af05a74ea0c28f1db4053f522.png.html" target="_blank" class="externalLink" rel="nofollow"><img src="https://i123.fastpic.org/thumb/2024/0625/22/_233aa53af05a74ea0c28f1db4053f522.jpeg" class="bbCodeImage LbImage" alt="[​IMG]" data-url="https://i123.fastpic.org/thumb/2024/0625/22/_233aa53af05a74ea0c28f1db4053f522.jpeg"></a> <a href="https://fastpic.org/view/123/2024/0625/_10a3891a80cb96167a2da2c3a6e47d57.png.html" target="_blank" class="externalLink" rel="nofollow"><img src="https://i123.fastpic.org/thumb/2024/0625/57/_10a3891a80cb96167a2da2c3a6e47d57.jpeg" class="bbCodeImage LbImage" alt="[​IMG]" data-url="https://i123.fastpic.org/thumb/2024/0625/57/_10a3891a80cb96167a2da2c3a6e47d57.jpeg"></a> <a href="https://fastpic.org/view/123/2024/0625/_90aded96625ad6db917cb6a0feec3f8f.png.html" target="_blank" class="externalLink" rel="nofollow"><img src="https://i123.fastpic.org/thumb/2024/0625/8f/_90aded96625ad6db917cb6a0feec3f8f.jpeg" class="bbCodeImage LbImage" alt="[​IMG]" data-url="https://i123.fastpic.org/thumb/2024/0625/8f/_90aded96625ad6db917cb6a0feec3f8f.jpeg"></a> <a href="https://fastpic.org/view/123/2024/0625/_b9775a07335495b5ea54e497f48ef466.png.html" target="_blank" class="externalLink" rel="nofollow"><img src="https://i123.fastpic.org/thumb/2024/0625/66/_b9775a07335495b5ea54e497f48ef466.jpeg" class="bbCodeImage LbImage" alt="[​IMG]" data-url="https://i123.fastpic.org/thumb/2024/0625/66/_b9775a07335495b5ea54e497f48ef466.jpeg"></a> <a href="https://fastpic.org/view/123/2024/0625/_2af45d326cbb30aadb0705e768b485fd.png.html" target="_blank" class="externalLink" rel="nofollow"><img src="https://i123.fastpic.org/thumb/2024/0625/fd/_2af45d326cbb30aadb0705e768b485fd.jpeg" class="bbCodeImage LbImage" alt="[​IMG]" data-url="https://i123.fastpic.org/thumb/2024/0625/fd/_2af45d326cbb30aadb0705e768b485fd.jpeg"></a><br>
<br>
​</div><br>
<div class="bbCodeBlock bbCodeCode">
<div class="type">Code:</div>
<pre>General
ID                                       : 0 (0x0)
Complete name                            : C:\Recordings\Green Day - Live @ Isle Of Wight 2024 FEED HDTV H264 1080i MP2&amp;Dolby E-J Silver.ts
Format                                   : MPEG-TS
File size                                : 29.1 GiB
Duration                                 : 2 h 0 min
Overall bit rate mode                    : Variable
Overall bit rate                         : 34.5 Mb/s
Frame rate                               : 25.000 FPS

Video
ID                                       : 512 (0x200)
Menu ID                                  : 1 (0x1)
Format                                   : AVC
Format/Info                              : Advanced Video Codec
Format profile                           : High 4:2:2@L4
Format settings                          : CABAC / 3 Ref Frames
Format settings, CABAC                   : Yes
Format settings, Reference frames        : 3 frames
Format settings, Slice count             : 6 slices per frame
Codec ID                                 : 27
Duration                                 : 2 h 0 min
Bit rate mode                            : Constant
Bit rate                                 : 30.1 Mb/s
Nominal bit rate                         : 32.1 Mb/s
Width                                    : 1 920 pixels
Height                                   : 1 080 pixels
Display aspect ratio                     : 16:9
Frame rate                               : 25.000 FPS
Color space                              : YUV
Chroma subsampling                       : 4:2:2
Bit depth                                : 10 bits
Scan type                                : MBAFF
Scan type, store method                  : Interleaved fields
Scan order                               : Top Field First
Bits/(Pixel*Frame)                       : 0.580
Stream size                              : 25.3 GiB (87%)
Color range                              : Limited
Color primaries                          : BT.709
Transfer characteristics                 : BT.709
Matrix coefficients                      : BT.709

Audio #1
ID                                       : 4112 (0x1010)
Menu ID                                  : 1 (0x1)
Format                                   : MPEG Audio
Format version                           : Version 1
Format profile                           : Layer 2
Codec ID                                 : 3
Duration                                 : 2 h 0 min
Bit rate mode                            : Constant
Bit rate                                 : 384 kb/s
Channel(s)                               : 2 channels
Sampling rate                            : 48.0 kHz
Frame rate                               : 41.667 FPS (1152 SPF)
Compression mode                         : Lossy
Stream size                              : 331 MiB (1%)
Language                                 : English
Language, more info                      : Clean effects

Audio #2
ID                                       : 4144 (0x1030)-1
Menu ID                                  : 1 (0x1)
Format                                   : Dolby E
Format settings                          : Little
Muxing mode                              : SMPTE ST 302 / SMPTE ST 337
Codec ID                                 : 6
Duration                                 : 2 h 0 min
Bit rate mode                            : Constant
Bit rate                                 : 1 291 kb/s
Channel(s)                               : 6 channels
Channel layout                           : L C Ls X R LFE Rs X
Sampling rate                            : 48.0 kHz
Frame rate                               : 25.000 FPS (1920 SPF)
Bit depth                                : 20 bits
Stream size                              : 1.09 GiB (4%)
Title                                    : CTV OB9 SPARE                   
Language                                 : English
Language, more info                      : Clean effects

Audio #3
ID                                       : 4144 (0x1030)-2
Menu ID                                  : 1 (0x1)
Format                                   : Dolby E
Format settings                          : Little
Muxing mode                              : SMPTE ST 302 / SMPTE ST 337
Codec ID                                 : 6
Duration                                 : 2 h 0 min
Bit rate mode                            : Constant
Bit rate                                 : 505 kb/s
Channel(s)                               : 2 channels
Channel layout                           : X X X L X X X R
Sampling rate                            : 48.0 kHz
Frame rate                               : 25.000 FPS (1920 SPF)
Bit depth                                : 20 bits
Stream size                              : 436 MiB (1%)
Title                                    : BTSPOT 
Language                                 : English
Language, more info                      : Clean effects

</pre>
</div><div style="text-align: center"><br>
<div class="bbCodeBlock bbCodeVfcHH HiddenContent">
<div class="attribution type">Hidden Content:</div>
<blockquote>You must reply before you can see the hidden data contained here.</blockquote>
</div></div>
<div class="messageTextEndMarker">&nbsp;</div>
</blockquote>
</article>]]></description>
                <author><![CDATA[ilya2129]]></author>
                </item>

                
                <item>
                <title><![CDATA[【Requests】[REQ AUD] - Ronroco (2024 Remaster) HD FLAC Album (48kHz/24bit) - Gustavo Santaolalla]]></title>
                <link><![CDATA[https://sharemania.us/threads/ronroco-2024-remaster-hd-flac-album-48khz-24bit-gustavo-santaolalla.247918/]]></link>
                <description><![CDATA[<article>
<blockquote class="messageText SelectQuoteContainer ugc baseHtml">
Hi guys. Has anyone got the new Ronroco (2024 Remaster) FLAC Album (48kHz/24bit) from maestro Gustavo Santaolalla (The Last of Us) ????<br>
<br>
<a href="https://store.nonesuch.com/en/nonesuch/artists/gustavo-santaolalla/ronroco-2024-remaster-hd-flac-album-48khz24bit/075597900910.html" target="_blank" class="externalLink" rel="nofollow">https://store.nonesuch.com/en/nones...er-hd-flac-album-48khz24bit/075597900910.html</a><br>
<br>
Thank you so much in advance!
<div class="messageTextEndMarker">&nbsp;</div>
</blockquote>
</article>]]></description>
                <author><![CDATA[Oscarilbo]]></author>
                </item>

                
                <item>
                <title><![CDATA[【HD Live Performances】FEED - Loreen - Tattoo ( Live @ Pinkpop 2024 ) FEED HDTV 422 1080i MP2-ilya2129]]></title>
                <link><![CDATA[https://sharemania.us/threads/loreen-tattoo-live-pinkpop-2024-feed-hdtv-422-1080i-mp2-ilya2129.247913/]]></link>
                <description><![CDATA[<article>
<blockquote class="messageText SelectQuoteContainer ugc baseHtml">
<div style="text-align: center"><img src="https://i123.fastpic.org/big/2024/0622/e9/9b01a3e0688d10ff569e7812b3096ee9.png?r=1" class="bbCodeImage LbImage" alt="[​IMG]" data-url="https://i123.fastpic.org/big/2024/0622/e9/9b01a3e0688d10ff569e7812b3096ee9.png?r=1" style=""><br>
<br>
<a href="https://fastpic.org/view/123/2024/0625/_a05577c995beb0c801eee35ab322aced.png.html" target="_blank" class="externalLink" rel="nofollow"><img src="https://i123.fastpic.org/thumb/2024/0625/ed/_a05577c995beb0c801eee35ab322aced.jpeg" class="bbCodeImage LbImage" alt="[​IMG]" data-url="https://i123.fastpic.org/thumb/2024/0625/ed/_a05577c995beb0c801eee35ab322aced.jpeg"></a> <a href="https://fastpic.org/view/123/2024/0625/_c24bab6678207e04fde575d8a7abe72b.png.html" target="_blank" class="externalLink" rel="nofollow"><img src="https://i123.fastpic.org/thumb/2024/0625/2b/_c24bab6678207e04fde575d8a7abe72b.jpeg" class="bbCodeImage LbImage" alt="[​IMG]" data-url="https://i123.fastpic.org/thumb/2024/0625/2b/_c24bab6678207e04fde575d8a7abe72b.jpeg"></a> <a href="https://fastpic.org/view/123/2024/0625/_9c457af902f2c5f352115dfe78b79252.png.html" target="_blank" class="externalLink" rel="nofollow"><img src="https://i123.fastpic.org/thumb/2024/0625/52/_9c457af902f2c5f352115dfe78b79252.jpeg" class="bbCodeImage LbImage" alt="[​IMG]" data-url="https://i123.fastpic.org/thumb/2024/0625/52/_9c457af902f2c5f352115dfe78b79252.jpeg"></a> <a href="https://fastpic.org/view/123/2024/0625/_ac8cb91f8ca2aa5e0bad9ad0205c2bf2.png.html" target="_blank" class="externalLink" rel="nofollow"><img src="https://i123.fastpic.org/thumb/2024/0625/f2/_ac8cb91f8ca2aa5e0bad9ad0205c2bf2.jpeg" class="bbCodeImage LbImage" alt="[​IMG]" data-url="https://i123.fastpic.org/thumb/2024/0625/f2/_ac8cb91f8ca2aa5e0bad9ad0205c2bf2.jpeg"></a> <a href="https://fastpic.org/view/123/2024/0625/_91761aed10e26329f321eba3d5fe3445.png.html" target="_blank" class="externalLink" rel="nofollow"><img src="https://i123.fastpic.org/thumb/2024/0625/45/_91761aed10e26329f321eba3d5fe3445.jpeg" class="bbCodeImage LbImage" alt="[​IMG]" data-url="https://i123.fastpic.org/thumb/2024/0625/45/_91761aed10e26329f321eba3d5fe3445.jpeg"></a><br>
<br>
​</div><br>
<div class="bbCodeBlock bbCodeCode">
<div class="type">Code:</div>
<pre>General
ID                                       : 1 (0x1)
Complete name                            : C:\Recordings\Loreen - Tattoo ( Live @ Pinkpop 2024 ) FEED HDTV 422 1080i MP2-ilya2129.ts
Format                                   : MPEG-TS
File size                                : 547 MiB
Duration                                 : 3 min 41 s
Overall bit rate mode                    : Variable
Overall bit rate                         : 20.8 Mb/s
Frame rate                               : 25.000 FPS

Video
ID                                       : 512 (0x200)
Menu ID                                  : 1 (0x1)
Format                                   : AVC
Format/Info                              : Advanced Video Codec
Format profile                           : High 4:2:2@L4
Format settings                          : CABAC / 3 Ref Frames
Format settings, CABAC                   : Yes
Format settings, Reference frames        : 3 frames
Format settings, Slice count             : 2 slices per frame
Codec ID                                 : 27
Duration                                 : 3 min 41 s
Bit rate mode                            : Constant
Bit rate                                 : 19.6 Mb/s
Width                                    : 1 920 pixels
Height                                   : 1 080 pixels
Display aspect ratio                     : 16:9
Frame rate                               : 25.000 FPS
Color space                              : YUV
Chroma subsampling                       : 4:2:2
Bit depth                                : 8 bits
Scan type                                : Interlaced
Scan type, store method                  : Separated fields
Scan order                               : Top Field First
Bits/(Pixel*Frame)                       : 0.378
Stream size                              : 500 MiB (91%)
Color range                              : Limited
Color primaries                          : BT.709
Transfer characteristics                 : BT.709
Matrix coefficients                      : BT.709

Audio #1
ID                                       : 4112 (0x1010)
Menu ID                                  : 1 (0x1)
Format                                   : MPEG Audio
Format version                           : Version 1
Format profile                           : Layer 2
Format settings                          : Dual mono / Intensity Stereo + MS Stereo
Codec ID                                 : 3
Duration                                 : 3 min 41 s
Bit rate mode                            : Constant
Bit rate                                 : 384 kb/s
Channel(s)                               : 2 channels
Sampling rate                            : 48.0 kHz
Frame rate                               : 41.667 FPS (1152 SPF)
Compression mode                         : Lossy
Delay relative to video                  : 10 ms
Stream size                              : 10.1 MiB (2%)
Language                                 : English

Audio #2
ID                                       : 4128 (0x1020)
Menu ID                                  : 1 (0x1)
Format                                   : MPEG Audio
Format version                           : Version 1
Format profile                           : Layer 2
Format settings                          : Dual mono / Intensity Stereo + MS Stereo
Codec ID                                 : 3
Duration                                 : 3 min 41 s
Bit rate mode                            : Constant
Bit rate                                 : 384 kb/s
Channel(s)                               : 2 channels
Sampling rate                            : 48.0 kHz
Frame rate                               : 41.667 FPS (1152 SPF)
Compression mode                         : Lossy
Delay relative to video                  : 26 ms
Stream size                              : 10.1 MiB (2%)
Language                                 : English
</pre>
</div><div style="text-align: center"><br>
<div class="bbCodeBlock bbCodeVfcHH HiddenContent">
<div class="attribution type">Hidden Content:</div>
<blockquote>You must reply before you can see the hidden data contained here.</blockquote>
</div></div>
<div class="messageTextEndMarker">&nbsp;</div>
</blockquote>
</article>]]></description>
                <author><![CDATA[ilya2129]]></author>
                </item>

                
                <item>
                <title><![CDATA[【HD Live Performances】FEED - Tom Odell - Live @ Hurricane Festival 2024 FEED HDTV H264 1080i MP2-ilya2129]]></title>
                <link><![CDATA[https://sharemania.us/threads/tom-odell-live-hurricane-festival-2024-feed-hdtv-h264-1080i-mp2-ilya2129.247915/]]></link>
                <description><![CDATA[<article>
<blockquote class="messageText SelectQuoteContainer ugc baseHtml">
<div style="text-align: center"><img src="https://i123.fastpic.org/big/2024/0622/74/a9f6ecd03e892f5d9a7b2393988ccb74.png?r=1" class="bbCodeImage LbImage" alt="[​IMG]" data-url="https://i123.fastpic.org/big/2024/0622/74/a9f6ecd03e892f5d9a7b2393988ccb74.png?r=1" style=""><br>
<br>
<a href="https://fastpic.org/view/123/2024/0625/_0d4563ca2cb6599eca631417a5f01b6c.png.html" target="_blank" class="externalLink" rel="nofollow"><img src="https://i123.fastpic.org/thumb/2024/0625/6c/_0d4563ca2cb6599eca631417a5f01b6c.jpeg" class="bbCodeImage LbImage" alt="[​IMG]" data-url="https://i123.fastpic.org/thumb/2024/0625/6c/_0d4563ca2cb6599eca631417a5f01b6c.jpeg"></a> <a href="https://fastpic.org/view/123/2024/0625/_5e79a86d4a2066000d3ed0bcb029093b.png.html" target="_blank" class="externalLink" rel="nofollow"><img src="https://i123.fastpic.org/thumb/2024/0625/3b/_5e79a86d4a2066000d3ed0bcb029093b.jpeg" class="bbCodeImage LbImage" alt="[​IMG]" data-url="https://i123.fastpic.org/thumb/2024/0625/3b/_5e79a86d4a2066000d3ed0bcb029093b.jpeg"></a> <a href="https://fastpic.org/view/123/2024/0625/_3b98747f72b2c15ff5708eae21c2fba8.png.html" target="_blank" class="externalLink" rel="nofollow"><img src="https://i123.fastpic.org/thumb/2024/0625/a8/_3b98747f72b2c15ff5708eae21c2fba8.jpeg" class="bbCodeImage LbImage" alt="[​IMG]" data-url="https://i123.fastpic.org/thumb/2024/0625/a8/_3b98747f72b2c15ff5708eae21c2fba8.jpeg"></a> <a href="https://fastpic.org/view/123/2024/0625/_f8ac5f9ae6c3044e27b12eca8eb83f04.png.html" target="_blank" class="externalLink" rel="nofollow"><img src="https://i123.fastpic.org/thumb/2024/0625/04/_f8ac5f9ae6c3044e27b12eca8eb83f04.jpeg" class="bbCodeImage LbImage" alt="[​IMG]" data-url="https://i123.fastpic.org/thumb/2024/0625/04/_f8ac5f9ae6c3044e27b12eca8eb83f04.jpeg"></a> <a href="https://fastpic.org/view/123/2024/0625/_dcfaeb445e84e52a6291de572978abdc.png.html" target="_blank" class="externalLink" rel="nofollow"><img src="https://i123.fastpic.org/thumb/2024/0625/dc/_dcfaeb445e84e52a6291de572978abdc.jpeg" class="bbCodeImage LbImage" alt="[​IMG]" data-url="https://i123.fastpic.org/thumb/2024/0625/dc/_dcfaeb445e84e52a6291de572978abdc.jpeg"></a><br>
<br>
​</div><br>
<div class="bbCodeBlock bbCodeCode">
<div class="type">Code:</div>
<pre>General
ID                                       : 1 (0x1)
Complete name                            : C:\Recordings\Tom Odell - Live @ Hurricane Festival 2024 FEED HDTV H264 1080i MP2-ilya2129.ts
Format                                   : MPEG-TS
File size                                : 9.39 GiB
Duration                                 : 1 h 3 min
Overall bit rate mode                    : Variable
Overall bit rate                         : 21.2 Mb/s
Frame rate                               : 25.000 FPS

Video
ID                                       : 256 (0x100)
Menu ID                                  : 1 (0x1)
Format                                   : AVC
Format/Info                              : Advanced Video Codec
Format profile                           : High 4:2:2@L4.1
Format settings                          : CABAC / 4 Ref Frames
Format settings, CABAC                   : Yes
Format settings, Reference frames        : 4 frames
Codec ID                                 : 27
Duration                                 : 1 h 3 min
Bit rate                                 : 19.4 Mb/s
Width                                    : 1 920 pixels
Height                                   : 1 080 pixels
Display aspect ratio                     : 16:9
Frame rate                               : 25.000 FPS
Color space                              : YUV
Chroma subsampling                       : 4:2:2
Bit depth                                : 8 bits
Scan type                                : Interlaced
Scan type, store method                  : Separated fields
Scan order                               : Top Field First
Bits/(Pixel*Frame)                       : 0.374
Stream size                              : 8.58 GiB (91%)
Color range                              : Limited
Color primaries                          : BT.709
Transfer characteristics                 : BT.709
Matrix coefficients                      : BT.709

Audio #1
ID                                       : 257 (0x101)
Menu ID                                  : 1 (0x1)
Format                                   : MPEG Audio
Format version                           : Version 1
Format profile                           : Layer 2
Codec ID                                 : 3
Duration                                 : 1 h 3 min
Bit rate mode                            : Constant
Bit rate                                 : 384 kb/s
Channel(s)                               : 2 channels
Sampling rate                            : 48.0 kHz
Frame rate                               : 41.667 FPS (1152 SPF)
Compression mode                         : Lossy
Delay relative to video                  : 46 ms
Stream size                              : 174 MiB (2%)
Language                                 : one

Audio #2
ID                                       : 258 (0x102)
Menu ID                                  : 1 (0x1)
Format                                   : MPEG Audio
Format version                           : Version 1
Format profile                           : Layer 2
Codec ID                                 : 3
Duration                                 : 1 h 3 min
Bit rate mode                            : Constant
Bit rate                                 : 384 kb/s
Channel(s)                               : 2 channels
Sampling rate                            : 48.0 kHz
Frame rate                               : 41.667 FPS (1152 SPF)
Compression mode                         : Lossy
Delay relative to video                  : 38 ms
Stream size                              : 174 MiB (2%)
Language                                 : one


</pre>
</div><div style="text-align: center"><br>
<div class="bbCodeBlock bbCodeVfcHH HiddenContent">
<div class="attribution type">Hidden Content:</div>
<blockquote>You must reply before you can see the hidden data contained here.</blockquote>
</div></div>
<div class="messageTextEndMarker">&nbsp;</div>
</blockquote>
</article>]]></description>
                <author><![CDATA[ilya2129]]></author>
                </item>

                
                <item>
                <title><![CDATA[【HD Live Performances】FEED - Sam Smith - Stay With Me &amp; I'm Not the Only One ( Live @ Pinkpop 2024 ) FEED HDTV 422 1080i MP2-ilya2129]]></title>
                <link><![CDATA[https://sharemania.us/threads/sam-smith-stay-with-me-im-not-the-only-one-live-pinkpop-2024-feed-hdtv-422-1080i-mp2-ilya2129.247912/]]></link>
                <description><![CDATA[<article>
<blockquote class="messageText SelectQuoteContainer ugc baseHtml">
THANKS
<div class="messageTextEndMarker">&nbsp;</div>
</blockquote>
</article>]]></description>
                <author><![CDATA[ilya2129]]></author>
                </item>

                
                <item>
                <title><![CDATA[【HD Live Performances】FEED - Ed Sheeran - Live @ Hurricane Festival 2024 FEED HDTV H264 1080i MP2-ilya2129]]></title>
                <link><![CDATA[https://sharemania.us/threads/ed-sheeran-live-hurricane-festival-2024-feed-hdtv-h264-1080i-mp2-ilya2129.247914/]]></link>
                <description><![CDATA[<article>
<blockquote class="messageText SelectQuoteContainer ugc baseHtml">
<div style="text-align: center"><img src="https://i123.fastpic.org/big/2024/0622/e9/9b01a3e0688d10ff569e7812b3096ee9.png?r=1" class="bbCodeImage LbImage" alt="[​IMG]" data-url="https://i123.fastpic.org/big/2024/0622/e9/9b01a3e0688d10ff569e7812b3096ee9.png?r=1" style=""><br>
<br>
<a href="https://fastpic.org/view/123/2024/0625/_8f31f67311bf3d3fb0d9c534067e6579.png.html" target="_blank" class="externalLink" rel="nofollow"><img src="https://i123.fastpic.org/thumb/2024/0625/79/_8f31f67311bf3d3fb0d9c534067e6579.jpeg" class="bbCodeImage LbImage" alt="[​IMG]" data-url="https://i123.fastpic.org/thumb/2024/0625/79/_8f31f67311bf3d3fb0d9c534067e6579.jpeg"></a> <a href="https://fastpic.org/view/123/2024/0625/_615b2f8bd84565f5e97e799daf3b059f.png.html" target="_blank" class="externalLink" rel="nofollow"><img src="https://i123.fastpic.org/thumb/2024/0625/9f/_615b2f8bd84565f5e97e799daf3b059f.jpeg" class="bbCodeImage LbImage" alt="[​IMG]" data-url="https://i123.fastpic.org/thumb/2024/0625/9f/_615b2f8bd84565f5e97e799daf3b059f.jpeg"></a> <a href="https://fastpic.org/view/123/2024/0625/_3867be6381609cceb32c50510eb575a1.png.html" target="_blank" class="externalLink" rel="nofollow"><img src="https://i123.fastpic.org/thumb/2024/0625/a1/_3867be6381609cceb32c50510eb575a1.jpeg" class="bbCodeImage LbImage" alt="[​IMG]" data-url="https://i123.fastpic.org/thumb/2024/0625/a1/_3867be6381609cceb32c50510eb575a1.jpeg"></a><br>
<br>
​</div><br>
<div class="bbCodeBlock bbCodeCode">
<div class="type">Code:</div>
<pre>General
ID                                       : 1 (0x1)
Complete name                            : C:\Recordings\Sam Smith - Stay With Me &amp; I'm Not the Only One ( Live @ Pinkpop 2024 ) FEED HDTV 422 1080i MP2-ilya2129.ts
Format                                   : MPEG-TS
File size                                : 1.19 GiB
Duration                                 : 8 min 11 s
Overall bit rate mode                    : Variable
Overall bit rate                         : 20.7 Mb/s
Frame rate                               : 25.000 FPS

Video
ID                                       : 512 (0x200)
Menu ID                                  : 1 (0x1)
Format                                   : AVC
Format/Info                              : Advanced Video Codec
Format profile                           : High 4:2:2@L4
Format settings                          : CABAC / 3 Ref Frames
Format settings, CABAC                   : Yes
Format settings, Reference frames        : 3 frames
Format settings, Slice count             : 2 slices per frame
Codec ID                                 : 27
Duration                                 : 8 min 11 s
Bit rate mode                            : Constant
Bit rate                                 : 19.6 Mb/s
Width                                    : 1 920 pixels
Height                                   : 1 080 pixels
Display aspect ratio                     : 16:9
Frame rate                               : 25.000 FPS
Color space                              : YUV
Chroma subsampling                       : 4:2:2
Bit depth                                : 8 bits
Scan type                                : Interlaced
Scan type, store method                  : Separated fields
Scan order                               : Top Field First
Bits/(Pixel*Frame)                       : 0.378
Stream size                              : 1.08 GiB (91%)
Color range                              : Limited
Color primaries                          : BT.709
Transfer characteristics                 : BT.709
Matrix coefficients                      : BT.709

Audio #1
ID                                       : 4112 (0x1010)
Menu ID                                  : 1 (0x1)
Format                                   : MPEG Audio
Format version                           : Version 1
Format profile                           : Layer 2
Format settings                          : Dual mono / Intensity Stereo + MS Stereo
Codec ID                                 : 3
Duration                                 : 8 min 11 s
Bit rate mode                            : Constant
Bit rate                                 : 384 kb/s
Channel(s)                               : 2 channels
Sampling rate                            : 48.0 kHz
Frame rate                               : 41.667 FPS (1152 SPF)
Compression mode                         : Lossy
Delay relative to video                  : 48 ms
Stream size                              : 22.5 MiB (2%)
Language                                 : English

Audio #2
ID                                       : 4128 (0x1020)
Menu ID                                  : 1 (0x1)
Format                                   : MPEG Audio
Format version                           : Version 1
Format profile                           : Layer 2
Format settings                          : Dual mono / Intensity Stereo + MS Stereo
Codec ID                                 : 3
Duration                                 : 8 min 11 s
Bit rate mode                            : Constant
Bit rate                                 : 384 kb/s
Channel(s)                               : 2 channels
Sampling rate                            : 48.0 kHz
Frame rate                               : 41.667 FPS (1152 SPF)
Compression mode                         : Lossy
Delay relative to video                  : 22 ms
Stream size                              : 22.5 MiB (2%)
Language                                 : English



</pre>
</div><div style="text-align: center"><br>
<div class="bbCodeBlock bbCodeVfcHH HiddenContent">
<div class="attribution type">Hidden Content:</div>
<blockquote>You must reply before you can see the hidden data contained here.</blockquote>
</div></div>
<div class="messageTextEndMarker">&nbsp;</div>
</blockquote>
</article>]]></description>
                <author><![CDATA[ilya2129]]></author>
                </item>

                
                <item>
                <title><![CDATA[【HD Live Performances】FEED - Keane - Live @ Isle Of Wight 2024 FEED HDTV H264 1080i MP2&amp;Dolby E-J Silver]]></title>
                <link><![CDATA[https://sharemania.us/threads/keane-live-isle-of-wight-2024-feed-hdtv-h264-1080i-mp2-dolby-e-j-silver.247917/]]></link>
                <description><![CDATA[<article>
<blockquote class="messageText SelectQuoteContainer ugc baseHtml">
<div style="text-align: center"><img src="https://i123.fastpic.org/big/2024/0622/74/a9f6ecd03e892f5d9a7b2393988ccb74.png?r=1" class="bbCodeImage LbImage" alt="[​IMG]" data-url="https://i123.fastpic.org/big/2024/0622/74/a9f6ecd03e892f5d9a7b2393988ccb74.png?r=1" style=""><br>
<br>
<a href="https://fastpic.org/view/123/2024/0625/_0fcbde00882c8eca243e4e2e6c4d8ad5.png.html" target="_blank" class="externalLink" rel="nofollow"><img src="https://i123.fastpic.org/thumb/2024/0625/d5/_0fcbde00882c8eca243e4e2e6c4d8ad5.jpeg" class="bbCodeImage LbImage" alt="[​IMG]" data-url="https://i123.fastpic.org/thumb/2024/0625/d5/_0fcbde00882c8eca243e4e2e6c4d8ad5.jpeg"></a> <a href="https://fastpic.org/view/123/2024/0625/_6e5359708c286be84782b6a55efb44da.png.html" target="_blank" class="externalLink" rel="nofollow"><img src="https://i123.fastpic.org/thumb/2024/0625/da/_6e5359708c286be84782b6a55efb44da.jpeg" class="bbCodeImage LbImage" alt="[​IMG]" data-url="https://i123.fastpic.org/thumb/2024/0625/da/_6e5359708c286be84782b6a55efb44da.jpeg"></a> <a href="https://fastpic.org/view/123/2024/0625/_94e53f1d6922f4a2d08608fa6dda092b.png.html" target="_blank" class="externalLink" rel="nofollow"><img src="https://i123.fastpic.org/thumb/2024/0625/2b/_94e53f1d6922f4a2d08608fa6dda092b.jpeg" class="bbCodeImage LbImage" alt="[​IMG]" data-url="https://i123.fastpic.org/thumb/2024/0625/2b/_94e53f1d6922f4a2d08608fa6dda092b.jpeg"></a> <a href="https://fastpic.org/view/123/2024/0625/_0612b9c8c87bfba57603fbeced24a893.png.html" target="_blank" class="externalLink" rel="nofollow"><img src="https://i123.fastpic.org/thumb/2024/0625/93/_0612b9c8c87bfba57603fbeced24a893.jpeg" class="bbCodeImage LbImage" alt="[​IMG]" data-url="https://i123.fastpic.org/thumb/2024/0625/93/_0612b9c8c87bfba57603fbeced24a893.jpeg"></a> <a href="https://fastpic.org/view/123/2024/0625/_0c9812a4cab4e87c712dce64ca127c17.png.html" target="_blank" class="externalLink" rel="nofollow"><img src="https://i123.fastpic.org/thumb/2024/0625/17/_0c9812a4cab4e87c712dce64ca127c17.jpeg" class="bbCodeImage LbImage" alt="[​IMG]" data-url="https://i123.fastpic.org/thumb/2024/0625/17/_0c9812a4cab4e87c712dce64ca127c17.jpeg"></a> <a href="https://fastpic.org/view/123/2024/0625/_c9fe000eba2fc27060ad4fc1a27ed4c7.png.html" target="_blank" class="externalLink" rel="nofollow"><img src="https://i123.fastpic.org/thumb/2024/0625/c7/_c9fe000eba2fc27060ad4fc1a27ed4c7.jpeg" class="bbCodeImage LbImage" alt="[​IMG]" data-url="https://i123.fastpic.org/thumb/2024/0625/c7/_c9fe000eba2fc27060ad4fc1a27ed4c7.jpeg"></a><br>
<br>
​</div><br>
<div class="bbCodeBlock bbCodeCode">
<div class="type">Code:</div>
<pre>General
ID                                       : 1 (0x1)
Complete name                            : C:\Recordings\Ed Sheeran - Live @ Hurricane Festival 2024 FEED HDTV H264 1080i MP2-ilya2129.ts
Format                                   : MPEG-TS
File size                                : 13.9 GiB
Duration                                 : 1 h 33 min
Overall bit rate mode                    : Variable
Overall bit rate                         : 21.3 Mb/s
Frame rate                               : 25.000 FPS

Video
ID                                       : 308 (0x134)
Menu ID                                  : 1 (0x1)
Format                                   : AVC
Format/Info                              : Advanced Video Codec
Format profile                           : High@L4.1
Format settings                          : CABAC / 4 Ref Frames
Format settings, CABAC                   : Yes
Format settings, Reference frames        : 4 frames
Codec ID                                 : 27
Duration                                 : 1 h 33 min
Bit rate                                 : 19.4 Mb/s
Width                                    : 1 920 pixels
Height                                   : 1 080 pixels
Display aspect ratio                     : 16:9
Frame rate                               : 25.000 FPS
Color space                              : YUV
Chroma subsampling                       : 4:2:0
Bit depth                                : 8 bits
Scan type                                : Interlaced
Scan type, store method                  : Separated fields
Scan order                               : Top Field First
Bits/(Pixel*Frame)                       : 0.375
Stream size                              : 12.7 GiB (91%)
Color range                              : Limited
Color primaries                          : BT.709
Transfer characteristics                 : BT.709
Matrix coefficients                      : BT.709

Audio #1
ID                                       : 256 (0x100)
Menu ID                                  : 1 (0x1)
Format                                   : MPEG Audio
Format version                           : Version 1
Format profile                           : Layer 2
Codec ID                                 : 3
Duration                                 : 1 h 33 min
Bit rate mode                            : Constant
Bit rate                                 : 384 kb/s
Channel(s)                               : 2 channels
Sampling rate                            : 48.0 kHz
Frame rate                               : 41.667 FPS (1152 SPF)
Compression mode                         : Lossy
Delay relative to video                  : -80 ms
Stream size                              : 258 MiB (2%)
Language                                 : one

Audio #2
ID                                       : 257 (0x101)
Menu ID                                  : 1 (0x1)
Format                                   : MPEG Audio
Format version                           : Version 1
Format profile                           : Layer 2
Codec ID                                 : 3
Duration                                 : 1 h 33 min
Bit rate mode                            : Constant
Bit rate                                 : 384 kb/s
Channel(s)                               : 2 channels
Sampling rate                            : 48.0 kHz
Frame rate                               : 41.667 FPS (1152 SPF)
Compression mode                         : Lossy
Delay relative to video                  : -80 ms
Stream size                              : 258 MiB (2%)
Language                                 : one

</pre>
</div><div style="text-align: center"><br>
<div class="bbCodeBlock bbCodeVfcHH HiddenContent">
<div class="attribution type">Hidden Content:</div>
<blockquote>You must reply before you can see the hidden data contained here.</blockquote>
</div></div>
<div class="messageTextEndMarker">&nbsp;</div>
</blockquote>
</article>]]></description>
                <author><![CDATA[ilya2129]]></author>
                </item>

                </channel></rss>